<?xml version="1.0" encoding="UTF-8"?>
<svg version="1.1" viewBox="0 0 128 128" xmlns="http://www.w3.org/2000/svg" xmlns:xlink="http://www.w3.org/1999/xlink">
  <style>
    :root > #off:not(:target) {
      display: none;
    }
    :root > #off:target + #on {
      display: none;
    }
  </style>
  <defs>
    <g id="Shield">
      <g transform="matrix(-.6945203 0 0 .56109687 375.02964 -247.42947)" stroke="#fff" stroke-linecap="round" stroke-linejoin="round" stroke-width="1.60191178">
        <path d="m447.83376 669.09921c-80.63119-57.03115-80.63119-57.03115-80.63119-199.60903 34.55623 0 46.07497 0 80.63119-28.51558m0 228.12461c80.6312-57.03115 80.6312-57.03115 80.6312-199.60903-34.55623 0-46.07497 0-80.6312-28.51558" stroke="#fff" stroke-linecap="round" stroke-linejoin="round" stroke-width="1.60191178"/>
      </g>
    </g>
    <g id="Text" transform="translate(-17.872548,-17.32535)" stroke="#fff">
      <ellipse transform="matrix(1.3333335,0,0,1.3333334,-42.290862,-31.108461)" cx="102.12254" cy="81.325356" rx="11.999999" ry="12" fill="none" stroke-width="5.99999952"/>
      <g transform="scale(1.0018026 .99820067)" fill="#fff" stroke-width="1.99999997">
        <path d="m81.72523 81.471945c0 11.019828-4.991003 16.028841-15.97121 16.028841s-15.97121-5.009013-15.97121-16.028841v-24.043262h7.985605v24.043262c0 7.012618.9982 8.014421 7.985605 8.014421 6.987404 0 7.985605-1.001803 7.985605-8.014421v-24.043262h7.985605z" fill="#fff" stroke-width="0"/>
      </g>
    </g>
  </defs>
  <use id="off" fill="#808080" href="#Shield" />
  <use id="on" fill="#800000" href="#Shield" />
  <use href="#Text" />
</svg>
